<svg width="480" height="456" viewBox="0 0 480 456" fill="none" xmlns="http://www.w3.org/2000/svg">
<g clip-path="url(#clip0_136_2)">
<path d="M157.999 1.86731C138.399 8.00064 134.665 12.6673 105.732 65.2006C92.2654 89.4673 81.332 109.734 81.332 110.401C81.332 111.334 174.799 163.201 176.665 163.334C177.465 163.334 227.865 73.334 234.265 60.4006L236.399 56.2673L224.265 37.0673C211.732 17.334 205.332 10.0006 197.332 6.00064C185.999 0.133976 168.799 -1.59936 157.999 1.86731Z" fill="#FF7A00"/>
<path d="M214.264 6.53364C217.197 9.46697 226.264 22.267 234.264 34.9336C249.997 59.7336 291.197 129.334 290.397 130C290.13 130.134 283.464 134 275.33 138.667C267.33 143.334 260.397 147.334 259.997 147.734C259.33 148.267 304.664 146.8 310.664 146C312.53 145.734 323.997 145.2 336.264 144.667C350.397 144 359.064 143.2 359.864 142.134C361.997 139.467 405.597 59.867 405.197 59.3336C404.93 59.2003 398.664 62.5336 391.33 66.8003C381.064 72.8003 377.73 74.267 376.53 72.9336C375.73 72.1336 368.53 60.267 360.664 46.667C341.064 12.9336 339.864 11.467 331.73 7.46697C323.064 3.2003 319.864 2.93364 257.33 2.0003L208.797 1.2003L214.264 6.53364Z" fill="#FF7A00"/>
<path d="M377.065 177.066L329.465 204.533L334.398 213.333C337.065 218.133 350.798 242.133 364.665 266.4L389.998 310.8L416.665 310.4C442.665 310 443.465 309.866 450.132 306.4C463.598 299.333 474.132 286 477.998 271.2C482.932 252.4 480.932 246.933 451.065 194.666C437.465 170.8 425.865 150.933 425.465 150.4C425.065 150 403.198 161.866 377.065 177.066Z" fill="#FF7A00"/>
<path d="M22.6653 175.2C30.3986 179.867 36.5319 184.133 36.3986 184.8C36.2653 185.467 28.7986 198.533 19.5986 214C10.5319 229.333 2.26526 244.267 1.33193 247.2C-1.33474 255.333 0.265261 264.133 6.7986 277.067C9.9986 283.467 21.9986 306.133 33.1986 327.467L53.8653 366.267L56.6653 358.133C59.8653 348.4 73.7319 323.333 104.265 271.6L126.932 233.333L131.865 236.267C134.532 237.867 141.332 242.133 147.199 245.6C152.932 249.2 157.865 251.867 158.132 251.733C158.265 251.467 146.799 232.267 132.399 208.933L106.265 166.667H57.4653H8.66526L22.6653 175.2Z" fill="#FF7A00"/>
<path d="M276.665 326C264.265 349.2 253.732 368.934 253.599 370.134C253.332 371.334 263.865 390.934 276.932 413.734L300.665 455.2L301.332 438.667L301.999 422.267L336.132 422.534C357.199 422.8 372.399 422.267 375.599 421.467C387.065 418.4 389.732 415.067 421.065 365.334C437.332 339.467 450.399 318 450.132 317.734C449.732 317.334 447.199 317.867 444.399 318.934C439.332 320.667 408.665 321.067 328.932 320.267L299.865 320L300.265 302C300.532 292.134 300.399 284 299.999 284C299.599 284 289.199 302.934 276.665 326Z" fill="#FF7A00"/>
<path d="M81.731 329.6C66.6643 356.533 65.0643 360.4 64.3977 370.266C63.4643 381.6 66.2643 392 72.7977 402.933C78.531 412.266 83.4643 416.533 94.6643 421.866L103.331 426L157.731 426.4L211.998 426.8V371.466V316H150.798H89.4643L81.731 329.6Z" fill="#FF7A00"/>
</g>
<defs>
<clipPath id="clip0_136_2">
<rect width="480" height="456" fill="white"/>
</clipPath>
</defs>
</svg>
