<svg width="440" height="500" viewBox="0 0 440 500" fill="none" xmlns="http://www.w3.org/2000/svg">
<path d="M205.09 0.439823C134.296 4.78013 70.5529 38.6262 33.0736 91.8367C22.0948 107.403 13.4822 124.681 8.0401 142.084C-6.39322 188.283 -1.28241 237.154 22.4734 279.597C31.512 295.748 40.0773 307.141 54.4633 322.165C56.0723 323.876 90.0971 362.897 129.99 408.846C173.432 458.885 203.576 493.232 205.138 494.484C213.94 501.578 226.054 501.578 234.856 494.484C236.418 493.232 266.562 458.885 310.004 408.846C349.897 362.897 383.922 323.876 385.531 322.165C399.917 307.141 408.482 295.748 417.52 279.597C444.305 231.728 447.286 175.179 425.755 125.391C409.05 86.8704 379.994 54.9023 340.669 31.8236C301.628 8.91177 252.46 -2.4398 205.09 0.439823ZM231.544 94.5076C242.144 95.7179 250.378 97.8881 259.984 102.02C286.154 113.204 304.041 133.57 310.241 159.362C311.424 164.203 311.518 165.413 311.566 174.636C311.566 185.779 311.092 189.035 308.253 197.799C300.634 221.211 280.522 240.868 254.779 250.091C245.267 253.513 237.506 255.099 226.764 255.892C212.851 256.935 198.702 254.932 185.215 250.091C159.472 240.868 139.36 221.211 131.741 197.799C128.901 189.035 128.428 185.779 128.428 174.636C128.476 165.413 128.57 164.203 129.753 159.362C135.053 137.368 148.966 119.089 169.599 107.111C177.975 102.27 190.279 97.6377 199.743 95.8014C209.633 93.8816 221.843 93.3808 231.544 94.5076Z" fill="#E30000"/>
</svg>
