<svg width="126" height="129" viewBox="0 0 126 129" fill="none" xmlns="http://www.w3.org/2000/svg">
<path fill-rule="evenodd" clip-rule="evenodd" d="M0.513 69.3397C1.616 84.6597 9.985 101.34 21.286 110.745C28.699 116.914 36.047 121.265 37.099 120.107C37.913 119.211 42.164 106.992 42.164 105.549C42.164 105.117 40.262 103.793 37.937 102.607C25.374 96.1977 12.193 82.7357 2.477 66.3897L0 62.2227L0.513 69.3397Z" fill="#009846"/>
<path fill-rule="evenodd" clip-rule="evenodd" d="M100.947 88.5127C96.1231 96.6797 84.8281 104.313 73.1371 107.308C66.6641 108.967 65.1641 108.658 65.1641 105.664C65.1641 104.596 64.9071 103.723 64.5931 103.723C63.7431 103.723 50.1641 116.023 50.1641 116.792C50.1641 117.156 54.3261 120.234 59.4141 123.631C67.6931 129.158 68.6981 129.593 68.9831 127.767C69.1841 126.485 70.3001 125.519 71.9831 125.168C81.6011 123.166 83.3331 122.329 87.5351 117.655C92.4421 112.198 97.9131 102.179 101.082 92.8477C103.466 85.8297 103.419 84.3277 100.947 88.5127Z" fill="#4F5858"/>
<path fill-rule="evenodd" clip-rule="evenodd" d="M13.4386 27.6216C3.77064 31.9716 1.25264 33.7226 4.66364 33.7226C6.59364 33.7226 6.55964 34.1776 4.16264 40.4836C3.06364 43.3766 2.17464 47.4266 2.18764 49.4836C2.23264 56.5946 9.81264 71.5786 17.8916 80.5286L22.1286 85.2226L19.9466 80.2226C16.5676 72.4766 16.3316 57.3666 19.4556 48.7226C21.6836 42.5586 21.9616 42.2346 24.8206 42.4546L27.8356 42.6856L25.9736 33.0116C24.9506 27.6916 24.0116 23.2666 23.8876 23.1796C23.7646 23.0916 19.0626 25.0906 13.4386 27.6216Z" fill="#4F5858"/>
<path fill-rule="evenodd" clip-rule="evenodd" d="M51.4807 1.22565C48.0807 1.96465 43.1307 3.52365 40.4807 4.68865C34.9647 7.11565 25.1557 12.8817 25.1797 13.6837C25.1887 13.9807 27.6077 16.8627 30.5557 20.0897L35.9167 25.9577L43.2897 21.4967C56.5607 13.4667 69.1687 9.43065 85.1637 8.09165L93.6637 7.37965L88.5037 5.11065C77.2397 0.155654 63.1867 -1.31835 51.4807 1.22565Z" fill="#009846"/>
<path fill-rule="evenodd" clip-rule="evenodd" d="M73.6632 14.2428C70.3632 14.9858 66.9882 15.6598 66.1632 15.7398C65.3382 15.8198 67.8002 16.5578 71.6342 17.3798C81.7272 19.5418 88.5442 23.1488 96.0482 30.2958L102.663 36.5968L100.411 38.8838L98.1602 41.1708L107.85 43.9238C113.18 45.4388 117.638 46.5758 117.757 46.4508C117.876 46.3248 118.299 41.1608 118.697 34.9728C119.197 27.2008 119.09 23.7228 118.351 23.7228C117.762 23.7228 117.006 24.1688 116.669 24.7128C116.332 25.2578 113.701 23.2908 110.822 20.3418C106.5 15.9148 104.669 14.7828 100.326 13.8508C93.4252 12.3708 81.1692 12.5508 73.6632 14.2428Z" fill="#4F5858"/>
<path fill-rule="evenodd" clip-rule="evenodd" d="M116.662 55.5698L109.662 57.2458L109.023 70.7338C108.272 86.5848 106.189 94.8118 99.5969 107.96L95.1289 116.871L99.7749 113.547C111.378 105.246 121.15 90.9258 124.224 77.7228C125.771 71.0738 126.079 54.5238 124.662 54.1548C124.112 54.0118 120.512 54.6488 116.662 55.5698Z" fill="#009846"/>
<g clip-path="url(#clip0_222_65)">
<rect width="27.1432" height="37.023" transform="translate(39 55.4639) rotate(-29.7374)" fill="#4F5858"/>
<path d="M63.5 39L62.2887 39.5738L39.9763 48.945L38 49.7738V51.75C38 62.3325 42.2713 71.64 47.3713 78.4613C49.9213 81.84 52.6625 84.645 55.34 86.6213C58.0175 88.5975 60.6313 90 63.5 90C66.4325 90 68.9825 88.5975 71.66 86.6213C74.3375 84.645 77.0788 81.84 79.6287 78.4613C84.7287 71.64 89 62.3325 89 51.75V49.7738L87.0238 48.945L64.7113 39.5738L63.5 39ZM63.5 45.9488V83.625C63.245 83.625 61.3962 83.1787 59.2925 81.6488C57.1887 80.1188 54.7663 77.6325 52.535 74.7C48.0074 68.6111 45.3094 61.3576 44.7575 53.79L63.5 46.0125V45.9488Z" fill="#009846"/>
</g>
<defs>
<clipPath id="clip0_222_65">
<rect width="51" height="51" fill="white" transform="translate(38 39)"/>
</clipPath>
</defs>
</svg>
